<svg xmlns="http://www.w3.org/2000/svg" viewBox="0 0 209.66 340.48"><defs><style>.cls-1{fill:#439cd7;}.cls-2{fill:#fff;}</style></defs><g id="레이어_2" data-name="레이어 2"><g id="레이어_1-2" data-name="레이어 1"><path class="cls-1" d="M164.52,0,140.11,19.06c17.62,16.51,37.5,60.07,37.5,90.75,0,50.32-31.74,73.3-72.78,73.3S32,160.13,32,109.81c0-30.68,19.89-74.24,37.51-90.75L45.13,0C23.19,22.19,0,72.22,0,109.81c0,48.57,26.6,81.75,62.05,96.26v6.12c40.36,18.95,85.56,0,85.56,0v-6.12c35.45-14.51,62-47.69,62-96.26C209.66,72.22,186.46,22.19,164.52,0ZM21.39,62.5l9.14,2.34L24.86,82.46l-9.14-2.34ZM10.61,105.2l9.48-.67,1.63,18.27-9.47.68Zm16.85,59.89-8.52-16.68,8.65-3.52,8.52,16.68ZM188.93,62.5l5.67,17.62-9.13,2.34L179.8,64.84Zm-6.07,102.59-8.65-3.52,8.52-16.68,8.65,3.52Zm5.74-42.29,1.63-18.27,9.48.67-1.63,18.28Z"/><path class="cls-2" d="M31.52,283.78a15.53,15.53,0,0,0,4.57-3.69,12.79,12.79,0,0,0,2.79-8.43,11.29,11.29,0,0,0-5.66-10.29Q27.55,257.9,18,257.91H0v54.7H20.4a36.09,36.09,0,0,0,7.9-.86A21.61,21.61,0,0,0,35.17,309,14,14,0,0,0,40,304a14.81,14.81,0,0,0,1.79-7.54,11.41,11.41,0,0,0-3.41-8.29A20.55,20.55,0,0,0,31.52,283.78ZM12.07,268.31h6.49a10.12,10.12,0,0,1,5.71,1.42A4.75,4.75,0,0,1,26.39,274a6.44,6.44,0,0,1-1.71,4.39c-1.13,1.29-2.9,1.93-5.28,1.93H12.07Zm16,31.63a7.33,7.33,0,0,1-3.42,2,16.86,16.86,0,0,1-4.83.64H12.07v-11.9H19a24.88,24.88,0,0,1,4.95.49,8.72,8.72,0,0,1,3.88,1.71,4.4,4.4,0,0,1,1.49,3.6A5,5,0,0,1,28.06,299.94Z"/><path class="cls-2" d="M70.43,255.75,42.79,312.61h11.9l5-10.7H80l4.73,10.7h14L71.09,255.75Zm-6.51,37.09,6.21-13.34L76,292.84Z"/><path class="cls-2" d="M143.31,289.12A16.71,16.71,0,0,0,147,283a20.87,20.87,0,0,0,1.12-6.69,17.88,17.88,0,0,0-1.58-7.62,16.12,16.12,0,0,0-4.62-5.79,21.72,21.72,0,0,0-7.54-3.72,36.74,36.74,0,0,0-10.24-1.3H105.56v54.7h12.07V295.22h8l12.94,17.39h14.07l-14.27-19.88A17.13,17.13,0,0,0,143.31,289.12Zm-25.68-20.81h8.66a11.13,11.13,0,0,1,5,1,7.1,7.1,0,0,1,2.78,2.38,8.22,8.22,0,0,1,1.21,2.79,10.87,10.87,0,0,1,.29,2.26,8.34,8.34,0,0,1-.45,2.57,8.44,8.44,0,0,1-1.5,2.63,7.7,7.7,0,0,1-2.87,2.08,11.2,11.2,0,0,1-4.58.82h-8.58Z"/><path class="cls-2" d="M195.63,312.61h14L182,255.75h-.66l-27.64,56.86h11.9l5-10.7h20.34ZM174.8,292.84,181,279.5l5.89,13.34Z"/><path class="cls-1" d="M0,326H9.74v1.81H5.81V340h-2V327.78H0Z"/><path class="cls-1" d="M18.76,326a7.43,7.43,0,0,1,2.06.28,5,5,0,0,1,1.64.84,3.94,3.94,0,0,1,1.09,1.37,4.32,4.32,0,0,1,.4,1.87,5.29,5.29,0,0,1-.26,1.63,3.91,3.91,0,0,1-.83,1.45,4,4,0,0,1-1.52,1,5.87,5.87,0,0,1-2.33.4H16.84V340h-2V326ZM19,333a3.54,3.54,0,0,0,1.44-.25,2.33,2.33,0,0,0,.9-.65,2.47,2.47,0,0,0,.47-.85,3,3,0,0,0,.14-.87,2.76,2.76,0,0,0-.15-.88,2.4,2.4,0,0,0-.49-.84,2.45,2.45,0,0,0-.87-.66,3.14,3.14,0,0,0-1.3-.25H16.84V333Zm2.41,1.09L25.2,340H22.93L19,334.18Z"/><path class="cls-1" d="M28.78,340l6.38-14.64h.12L41.68,340H39.43l-4.78-11.68,1.4-.88L30.73,340Zm3.75-5.33H38l.65,1.64H32Z"/><path class="cls-1" d="M59.12,340.48l-11.31-11,.57.14,0,10.44h-2V325.54h.1l11.18,11.07-.45-.1,0-10.54h2v14.51Z"/><path class="cls-1" d="M73,328.48a10.56,10.56,0,0,0-1.64-.64,6,6,0,0,0-1.74-.27,3,3,0,0,0-1.87.52,1.66,1.66,0,0,0-.7,1.4,1.53,1.53,0,0,0,.45,1.12,4,4,0,0,0,1.18.79c.48.22,1,.43,1.53.62a12.56,12.56,0,0,1,1.33.56,5.23,5.23,0,0,1,1.21.78,3.52,3.52,0,0,1,.85,1.15,4,4,0,0,1,.31,1.67,3.68,3.68,0,0,1-.58,2,3.89,3.89,0,0,1-1.65,1.44,5.77,5.77,0,0,1-2.57.53,7.9,7.9,0,0,1-1.83-.21,8,8,0,0,1-1.63-.55,10.89,10.89,0,0,1-1.33-.72l.87-1.48a8.13,8.13,0,0,0,1.11.63,6.86,6.86,0,0,0,1.31.48,5.32,5.32,0,0,0,1.34.18,4.09,4.09,0,0,0,1.38-.24,2.56,2.56,0,0,0,1.11-.74,1.92,1.92,0,0,0,.45-1.34,1.83,1.83,0,0,0-.4-1.18,3.3,3.3,0,0,0-1-.83,10.4,10.4,0,0,0-1.39-.61,15,15,0,0,1-1.4-.55,6.67,6.67,0,0,1-1.3-.75,3.46,3.46,0,0,1-1-1.08,3,3,0,0,1-.38-1.55,3.4,3.4,0,0,1,.56-1.94,3.83,3.83,0,0,1,1.53-1.3,5.42,5.42,0,0,1,2.23-.52,8.52,8.52,0,0,1,2.49.34,9.72,9.72,0,0,1,1.92.79Z"/><path class="cls-1" d="M83.13,326a6.42,6.42,0,0,1,2.73.52A3.89,3.89,0,0,1,87.61,328a4.2,4.2,0,0,1,.62,2.35A5.41,5.41,0,0,1,88,332a4.19,4.19,0,0,1-.84,1.46,4.09,4.09,0,0,1-1.51,1.05,5.69,5.69,0,0,1-2.27.4H81.19V340h-2V326Zm.2,7.06a3.53,3.53,0,0,0,1.44-.26,2.42,2.42,0,0,0,.89-.69,3,3,0,0,0,.47-.88,2.83,2.83,0,0,0,.14-.83,3.17,3.17,0,0,0-.14-.89,2.4,2.4,0,0,0-.48-.83,2.51,2.51,0,0,0-.87-.63,3.26,3.26,0,0,0-1.33-.24H81.19V333Z"/><path class="cls-1" d="M92.38,333a6.67,6.67,0,0,1,.58-2.76,7.09,7.09,0,0,1,1.61-2.3,7.4,7.4,0,0,1,5.28-2.13,7.49,7.49,0,0,1,2.87.56,7.62,7.62,0,0,1,2.4,1.57,7.15,7.15,0,0,1,1.63,2.3,6.84,6.84,0,0,1,0,5.56,7.23,7.23,0,0,1-1.62,2.29,7.64,7.64,0,0,1-2.39,1.53,7.85,7.85,0,0,1-5.8,0,7.46,7.46,0,0,1-2.37-1.52A7.11,7.11,0,0,1,93,335.84,6.76,6.76,0,0,1,92.38,333Zm2,0A5.22,5.22,0,0,0,96,336.8,5.64,5.64,0,0,0,97.73,338a5.41,5.41,0,0,0,2.14.42,5.46,5.46,0,0,0,5-3.27,5.19,5.19,0,0,0,.42-2.08,5.25,5.25,0,0,0-.42-2.1,5.64,5.64,0,0,0-1.17-1.72A5.23,5.23,0,0,0,102,328a5.43,5.43,0,0,0-2.13-.41,5.54,5.54,0,0,0-2.16.42A5.67,5.67,0,0,0,96,329.22a5.27,5.27,0,0,0-1.14,1.72A5.42,5.42,0,0,0,94.4,333Z"/><path class="cls-1" d="M116.55,326a7.41,7.41,0,0,1,2,.28,4.8,4.8,0,0,1,1.64.84,3.83,3.83,0,0,1,1.09,1.37,4.18,4.18,0,0,1,.4,1.87,5.6,5.6,0,0,1-.25,1.63,4.06,4.06,0,0,1-.83,1.45,4.13,4.13,0,0,1-1.52,1,6,6,0,0,1-2.34.4h-2.17V340h-2V326Zm.2,7.06a3.63,3.63,0,0,0,1.45-.25,2.49,2.49,0,0,0,.9-.65,2.62,2.62,0,0,0,.46-.85,2.72,2.72,0,0,0,.14-.87,2.76,2.76,0,0,0-.15-.88,2.54,2.54,0,0,0-.48-.84,2.64,2.64,0,0,0-.87-.66,3.22,3.22,0,0,0-1.31-.25h-2.27V333Zm2.41,1.09L123,340h-2.26l-3.91-5.85Z"/><path class="cls-1" d="M126.73,326h9.74v1.81h-3.93V340h-2V327.78h-3.84Z"/><path class="cls-1" d="M139,340l6.37-14.64h.12l6.4,14.64h-2.25l-4.77-11.68,1.39-.88L141,340Zm3.74-5.33h5.44l.65,1.64h-6.66Z"/><path class="cls-1" d="M154.46,326h9.74v1.81h-3.93V340h-2V327.78h-3.84Z"/><path class="cls-1" d="M169.34,326h2V340h-2Z"/><path class="cls-1" d="M176.62,333a6.67,6.67,0,0,1,.58-2.76,7.09,7.09,0,0,1,1.61-2.3,7.64,7.64,0,0,1,2.38-1.57,7.74,7.74,0,0,1,5.78,0,7.69,7.69,0,0,1,2.39,1.57,7.33,7.33,0,0,1,1.64,2.3,7,7,0,0,1,0,5.56,7.42,7.42,0,0,1-1.63,2.29,7.78,7.78,0,0,1-8.18,1.54,7.5,7.5,0,0,1-2.38-1.52,7.11,7.11,0,0,1-1.61-2.28A6.76,6.76,0,0,1,176.62,333Zm2,0a5.34,5.34,0,0,0,.41,2.09,5.15,5.15,0,0,0,1.18,1.7A5.41,5.41,0,0,0,182,338a5.33,5.33,0,0,0,2.13.42,5.41,5.41,0,0,0,3.86-1.57,5.29,5.29,0,0,0,1.16-1.7,5.2,5.2,0,0,0,.43-2.08,5.26,5.26,0,0,0-.43-2.1,5.61,5.61,0,0,0-1.16-1.72,5.23,5.23,0,0,0-1.74-1.17,5.75,5.75,0,0,0-4.29,0,5.55,5.55,0,0,0-1.74,1.17,5.15,5.15,0,0,0-1.15,1.72A5.41,5.41,0,0,0,178.65,333Z"/><path class="cls-1" d="M209.57,340.48l-11.31-11,.57.14,0,10.44h-2V325.54h.1l11.17,11.07-.45-.1,0-10.54h2v14.51Z"/></g></g></svg>