<svg xmlns="http://www.w3.org/2000/svg" viewBox="0 0 126.1 132.69"><defs><style>.cls-1{fill:#439cd7;}</style></defs><g id="레이어_2" data-name="레이어 2"><g id="레이어_1-2" data-name="레이어 1"><path class="cls-1" d="M99,0,84.27,11.46c10.6,9.93,22.56,36.13,22.56,54.59,0,30.26-19.09,44.08-43.78,44.08S19.27,96.31,19.27,66.05c0-18.46,12-44.66,22.56-54.59L27.15,0C14,13.35,0,43.44,0,66.05c0,29.21,16,49.16,37.32,57.89v3.68c24.28,11.4,51.46,0,51.46,0v-3.68c21.32-8.73,37.32-28.68,37.32-57.89C126.1,43.44,112.15,13.35,99,0ZM12.87,37.59,18.36,39,15,49.6,9.46,48.19ZM6.38,63.28l5.7-.41,1,11-5.69.41Zm10.14,36-5.13-10,5.21-2.12,5.12,10Zm97.11-61.71L117,48.19l-5.49,1.41L108.14,39ZM110,99.3l-5.2-2.12,5.13-10,5.2,2.12Zm3.46-25.44,1-11,5.7.41-1,11Z"/></g></g></svg>