<svg xmlns="http://www.w3.org/2000/svg" viewBox="0 0 374.4 132.69"><defs><style>.cls-1{fill:#439cd7;}.cls-2{fill:#fff;}</style></defs><g id="레이어_2" data-name="레이어 2"><g id="레이어_1-2" data-name="레이어 1"><path class="cls-1" d="M99,0,84.27,11.46c10.6,9.93,22.56,36.13,22.56,54.59,0,30.26-19.09,44.08-43.78,44.08S19.27,96.31,19.27,66.05c0-18.46,12-44.66,22.56-54.59L27.15,0C14,13.35,0,43.44,0,66.05c0,29.21,16,49.16,37.32,57.89v3.68c24.28,11.4,51.46,0,51.46,0v-3.68c21.32-8.73,37.32-28.68,37.32-57.89C126.1,43.44,112.15,13.35,99,0ZM12.87,37.59,18.36,39,15,49.6,9.46,48.19ZM6.38,63.28l5.7-.41,1,11-5.69.41Zm10.14,36-5.13-10,5.21-2.12,5.12,10Zm97.11-61.71L117,48.19l-5.49,1.41L108.14,39ZM110,99.3l-5.2-2.12,5.13-10,5.2,2.12Zm3.46-25.44,1-11,5.7.41-1,11Z"/><path class="cls-2" d="M191.24,74.39a16.09,16.09,0,0,0,4.69-3.79,13.2,13.2,0,0,0,2.87-8.68A11.61,11.61,0,0,0,193,51.34q-5.82-3.56-15.67-3.56H158.82V104h21a37,37,0,0,0,8.13-.88,22.34,22.34,0,0,0,7.06-2.83,14.59,14.59,0,0,0,5-5.12,15.27,15.27,0,0,0,1.84-7.75,11.68,11.68,0,0,0-3.51-8.52A20.92,20.92,0,0,0,191.24,74.39Zm-20-15.91h6.67a10.45,10.45,0,0,1,5.87,1.46A4.88,4.88,0,0,1,186,64.29a6.66,6.66,0,0,1-1.75,4.51c-1.17,1.33-3,2-5.44,2h-7.53ZM187.67,91a7.35,7.35,0,0,1-3.51,2.06,17.42,17.42,0,0,1-5,.65h-8V81.49h7.1a25.65,25.65,0,0,1,5.1.49,9.06,9.06,0,0,1,4,1.76A4.54,4.54,0,0,1,189,87.45,5.07,5.07,0,0,1,187.67,91Z"/><path class="cls-2" d="M231.24,45.57,202.82,104h12.24l5.14-11h20.91L246,104h14.39L231.93,45.57ZM224.55,83.7,230.94,70,237,83.7Z"/><path class="cls-2" d="M306.19,79.88A17.2,17.2,0,0,0,310,73.61a21.45,21.45,0,0,0,1.16-6.87,18.35,18.35,0,0,0-1.63-7.84,16.53,16.53,0,0,0-4.75-6A22.3,22.3,0,0,0,297,49.12a38,38,0,0,0-10.53-1.34H267.37V104h12.41V86.15H288L301.35,104h14.47L301.14,83.59A17.68,17.68,0,0,0,306.19,79.88Zm-26.41-21.4h8.9a11.39,11.39,0,0,1,5.18,1,7.38,7.38,0,0,1,2.87,2.44A8.77,8.77,0,0,1,298,64.79a11.66,11.66,0,0,1,.3,2.33,8.57,8.57,0,0,1-.47,2.64,8.73,8.73,0,0,1-1.54,2.71,7.92,7.92,0,0,1-3,2.14,11.54,11.54,0,0,1-4.71.84h-8.81Z"/><path class="cls-2" d="M360,104h14.38L346,45.57h-.69L316.84,104h12.24l5.14-11h20.91ZM338.56,83.7,345,70,351,83.7Z"/><path class="cls-1" d="M158.82,117.77h10v1.86h-4v12.6h-2v-12.6h-4Z"/><path class="cls-1" d="M178.12,117.77a7.42,7.42,0,0,1,2.11.29,4.91,4.91,0,0,1,1.69.86,4.07,4.07,0,0,1,1.12,1.41,4.37,4.37,0,0,1,.41,1.92,5.66,5.66,0,0,1-.26,1.68,4.15,4.15,0,0,1-.86,1.49,4.1,4.1,0,0,1-1.56,1.08,6.19,6.19,0,0,1-2.4.41h-2.23v5.32h-2V117.77Zm.21,7.26a3.74,3.74,0,0,0,1.48-.26,2.38,2.38,0,0,0,.93-.67,2.67,2.67,0,0,0,.48-.87,2.69,2.69,0,0,0,0-1.8,2.55,2.55,0,0,0-.5-.87,2.59,2.59,0,0,0-.9-.67,3.14,3.14,0,0,0-1.34-.26h-2.33V125Zm2.47,1.12,3.94,6.08h-2.33l-4-6Z"/><path class="cls-1" d="M188.42,132.23,195,117.17h.12l6.58,15.06h-2.31l-4.91-12,1.43-.9-5.47,12.92Zm3.85-5.48h5.6l.66,1.68h-6.84Z"/><path class="cls-1" d="M219.62,132.69,208,121.35l.59.14,0,10.74h-2v-14.9h.1l11.49,11.38-.46-.1,0-10.84h2v14.92Z"/><path class="cls-1" d="M233.88,120.35a12.39,12.39,0,0,0-1.69-.66,6,6,0,0,0-1.79-.28,3.14,3.14,0,0,0-1.93.54,1.73,1.73,0,0,0-.71,1.44,1.57,1.57,0,0,0,.46,1.15,4.41,4.41,0,0,0,1.21.81c.49.23,1,.44,1.57.64a13.41,13.41,0,0,1,1.38.57,5.46,5.46,0,0,1,1.23.81,3.48,3.48,0,0,1,.88,1.18,4.19,4.19,0,0,1,.32,1.72,3.91,3.91,0,0,1-.59,2.1,4,4,0,0,1-1.7,1.48,6,6,0,0,1-2.64.54,8.51,8.51,0,0,1-3.56-.78,13.22,13.22,0,0,1-1.37-.74l.89-1.52A8.73,8.73,0,0,0,227,130a7,7,0,0,0,1.35.49,5.55,5.55,0,0,0,1.37.18,4.28,4.28,0,0,0,1.42-.24,2.58,2.58,0,0,0,1.14-.76,2,2,0,0,0,.46-1.38,1.82,1.82,0,0,0-.41-1.22,3.37,3.37,0,0,0-1.06-.85,11.66,11.66,0,0,0-1.42-.63c-.49-.16-1-.35-1.45-.56a7,7,0,0,1-1.33-.77,3.67,3.67,0,0,1-1-1.11,3.08,3.08,0,0,1-.39-1.6,3.5,3.5,0,0,1,.58-2,3.9,3.9,0,0,1,1.57-1.34,5.55,5.55,0,0,1,2.29-.53,8.7,8.7,0,0,1,2.57.34,10.24,10.24,0,0,1,2,.82Z"/><path class="cls-1" d="M244.3,117.77a6.77,6.77,0,0,1,2.81.53,4,4,0,0,1,1.8,1.53,4.37,4.37,0,0,1,.64,2.42,5.43,5.43,0,0,1-.27,1.69,4.21,4.21,0,0,1-.87,1.5,4.14,4.14,0,0,1-1.55,1.08,6,6,0,0,1-2.33.41H242.3v5.3h-2V117.77Zm.21,7.26a3.53,3.53,0,0,0,1.48-.27,2.35,2.35,0,0,0,.91-.71,2.63,2.63,0,0,0,.48-.9,2.78,2.78,0,0,0,.15-.86,3,3,0,0,0-.15-.91,2.26,2.26,0,0,0-.49-.86,2.52,2.52,0,0,0-.89-.64,3.24,3.24,0,0,0-1.36-.25H242.3V125Z"/><path class="cls-1" d="M253.81,125a6.86,6.86,0,0,1,.6-2.84,7.45,7.45,0,0,1,1.65-2.37,7.78,7.78,0,0,1,2.45-1.61,7.89,7.89,0,0,1,5.94,0,7.83,7.83,0,0,1,2.46,1.61,7.54,7.54,0,0,1,1.68,2.37,7.12,7.12,0,0,1,0,5.72,7.36,7.36,0,0,1-1.67,2.35,7.8,7.8,0,0,1-5.43,2.15,7.9,7.9,0,0,1-3-.56,7.67,7.67,0,0,1-2.45-1.57,7.11,7.11,0,0,1-1.65-2.34A7,7,0,0,1,253.81,125Zm2.08,0a5.47,5.47,0,0,0,.43,2.15,5.39,5.39,0,0,0,1.21,1.75,5.72,5.72,0,0,0,1.79,1.19,5.82,5.82,0,0,0,4.39,0,5.77,5.77,0,0,0,1.77-1.18,5.59,5.59,0,0,0,1.19-1.75,5.16,5.16,0,0,0,.44-2.14,5.22,5.22,0,0,0-.44-2.16,5.8,5.8,0,0,0-1.19-1.77,5.52,5.52,0,0,0-1.79-1.2,5.81,5.81,0,0,0-4.41,0,5.5,5.5,0,0,0-3.39,5.1Z"/><path class="cls-1" d="M278.66,117.77a7.49,7.49,0,0,1,2.12.29,5,5,0,0,1,1.68.86,4,4,0,0,1,1.12,1.41,4.23,4.23,0,0,1,.41,1.92,5.66,5.66,0,0,1-.26,1.68,4.12,4.12,0,0,1-.85,1.49,4.26,4.26,0,0,1-1.56,1.08,6.28,6.28,0,0,1-2.41.41h-2.22v5.32h-2V117.77Zm.21,7.26a3.79,3.79,0,0,0,1.49-.26,2.53,2.53,0,0,0,.93-.67,2.47,2.47,0,0,0,.47-.87,2.93,2.93,0,0,0,.15-.9,2.67,2.67,0,0,0-.16-.9,2.64,2.64,0,0,0-1.39-1.54,3.2,3.2,0,0,0-1.34-.26h-2.33V125Zm2.48,1.12,3.93,6.08H283l-4-6Z"/><path class="cls-1" d="M289.13,117.77h10v1.86h-4v12.6h-2v-12.6h-4Z"/><path class="cls-1" d="M301.77,132.23l6.55-15.06h.13L315,132.23h-2.31l-4.91-12,1.44-.9-5.48,12.92Zm3.85-5.48h5.59l.67,1.68H305Z"/><path class="cls-1" d="M317.65,117.77h10v1.86h-4v12.6h-2v-12.6h-4Z"/><path class="cls-1" d="M332.94,117.77h2v14.46h-2Z"/><path class="cls-1" d="M340.44,125a6.85,6.85,0,0,1,.59-2.84,7.45,7.45,0,0,1,1.65-2.37,7.9,7.9,0,0,1,2.45-1.61,7.89,7.89,0,0,1,5.94,0,8,8,0,0,1,2.47,1.61,7.67,7.67,0,0,1,1.67,2.37,7,7,0,0,1,0,5.72,7.33,7.33,0,0,1-1.66,2.35,7.92,7.92,0,0,1-2.46,1.58,7.78,7.78,0,0,1-3,.57,8,8,0,0,1-3-.56,7.78,7.78,0,0,1-2.45-1.57,7.11,7.11,0,0,1-1.65-2.34A7,7,0,0,1,340.44,125Zm2.08,0a5.46,5.46,0,0,0,.42,2.15,5.55,5.55,0,0,0,1.21,1.75,5.83,5.83,0,0,0,1.79,1.19,5.82,5.82,0,0,0,4.39,0,5.66,5.66,0,0,0,1.77-1.18,5.46,5.46,0,0,0,1.2-1.75,5.31,5.31,0,0,0,.43-2.14,5.38,5.38,0,0,0-.43-2.16,5.66,5.66,0,0,0-1.2-1.77,5.52,5.52,0,0,0-1.79-1.2,5.81,5.81,0,0,0-4.41,0,5.52,5.52,0,0,0-1.79,1.2,5.44,5.44,0,0,0-1.18,1.77A5.65,5.65,0,0,0,342.52,125Z"/><path class="cls-1" d="M374.32,132.69l-11.64-11.34.59.14,0,10.74h-2v-14.9h.1l11.49,11.38-.46-.1,0-10.84h2v14.92Z"/></g></g></svg>